G04 #@! TF.GenerationSoftware,KiCad,Pcbnew,5.1.6-c6e7f7d~87~ubuntu18.04.1*
G04 #@! TF.CreationDate,2020-08-10T00:51:20+02:00*
G04 #@! TF.ProjectId,MyGateway,4d794761-7465-4776-9179-2e6b69636164,rev?*
G04 #@! TF.SameCoordinates,Original*
G04 #@! TF.FileFunction,Copper,L1,Top*
G04 #@! TF.FilePolarity,Positive*
%FSLAX46Y46*%
G04 Gerber Fmt 4.6, Leading zero omitted, Abs format (unit mm)*
G04 Created by KiCad (PCBNEW 5.1.6-c6e7f7d~87~ubuntu18.04.1) date 2020-08-10 00:51:20*
%MOMM*%
%LPD*%
G01*
G04 APERTURE LIST*
G04 #@! TA.AperFunction,SMDPad,CuDef*
%ADD10R,2.500000X1.000000*%
G04 #@! TD*
G04 #@! TA.AperFunction,SMDPad,CuDef*
%ADD11R,0.800000X1.900000*%
G04 #@! TD*
G04 #@! TA.AperFunction,SMDPad,CuDef*
%ADD12R,2.000000X1.500000*%
G04 #@! TD*
G04 #@! TA.AperFunction,SMDPad,CuDef*
%ADD13R,2.000000X3.800000*%
G04 #@! TD*
G04 #@! TA.AperFunction,ComponentPad*
%ADD14C,2.050000*%
G04 #@! TD*
G04 #@! TA.AperFunction,ComponentPad*
%ADD15C,2.250000*%
G04 #@! TD*
G04 #@! TA.AperFunction,ComponentPad*
%ADD16O,1.727200X2.032000*%
G04 #@! TD*
G04 #@! TA.AperFunction,ComponentPad*
%ADD17C,4.064000*%
G04 #@! TD*
G04 #@! TA.AperFunction,ComponentPad*
%ADD18R,1.700000X1.700000*%
G04 #@! TD*
G04 #@! TA.AperFunction,ComponentPad*
%ADD19O,1.700000X1.700000*%
G04 #@! TD*
G04 #@! TA.AperFunction,SMDPad,CuDef*
%ADD20C,0.100000*%
G04 #@! TD*
G04 #@! TA.AperFunction,SMDPad,CuDef*
%ADD21R,1.000000X1.500000*%
G04 #@! TD*
G04 #@! TA.AperFunction,ViaPad*
%ADD22C,0.600000*%
G04 #@! TD*
G04 #@! TA.AperFunction,Conductor*
%ADD23C,0.500000*%
G04 #@! TD*
G04 #@! TA.AperFunction,Conductor*
%ADD24C,0.250000*%
G04 #@! TD*
G04 #@! TA.AperFunction,Conductor*
%ADD25C,0.800000*%
G04 #@! TD*
G04 #@! TA.AperFunction,Conductor*
%ADD26C,0.254000*%
G04 #@! TD*
G04 APERTURE END LIST*
G04 #@! TA.AperFunction,SMDPad,CuDef*
G36*
G01*
X157351750Y-84335000D02*
X158264250Y-84335000D01*
G75*
G02*
X158508000Y-84578750I0J-243750D01*
G01*
X158508000Y-85066250D01*
G75*
G02*
X158264250Y-85310000I-243750J0D01*
G01*
X157351750Y-85310000D01*
G75*
G02*
X157108000Y-85066250I0J243750D01*
G01*
X157108000Y-84578750D01*
G75*
G02*
X157351750Y-84335000I243750J0D01*
G01*
G37*
G04 #@! TD.AperFunction*
G04 #@! TA.AperFunction,SMDPad,CuDef*
G36*
G01*
X157351750Y-82460000D02*
X158264250Y-82460000D01*
G75*
G02*
X158508000Y-82703750I0J-243750D01*
G01*
X158508000Y-83191250D01*
G75*
G02*
X158264250Y-83435000I-243750J0D01*
G01*
X157351750Y-83435000D01*
G75*
G02*
X157108000Y-83191250I0J243750D01*
G01*
X157108000Y-82703750D01*
G75*
G02*
X157351750Y-82460000I243750J0D01*
G01*
G37*
G04 #@! TD.AperFunction*
G04 #@! TA.AperFunction,SMDPad,CuDef*
G36*
G01*
X161158000Y-81525001D02*
X161158000Y-80624999D01*
G75*
G02*
X161407999Y-80375000I249999J0D01*
G01*
X162058001Y-80375000D01*
G75*
G02*
X162308000Y-80624999I0J-249999D01*
G01*
X162308000Y-81525001D01*
G75*
G02*
X162058001Y-81775000I-249999J0D01*
G01*
X161407999Y-81775000D01*
G75*
G02*
X161158000Y-81525001I0J249999D01*
G01*
G37*
G04 #@! TD.AperFunction*
G04 #@! TA.AperFunction,SMDPad,CuDef*
G36*
G01*
X159108000Y-81525001D02*
X159108000Y-80624999D01*
G75*
G02*
X159357999Y-80375000I249999J0D01*
G01*
X160008001Y-80375000D01*
G75*
G02*
X160258000Y-80624999I0J-249999D01*
G01*
X160258000Y-81525001D01*
G75*
G02*
X160008001Y-81775000I-249999J0D01*
G01*
X159357999Y-81775000D01*
G75*
G02*
X159108000Y-81525001I0J249999D01*
G01*
G37*
G04 #@! TD.AperFunction*
G04 #@! TA.AperFunction,SMDPad,CuDef*
G36*
G01*
X144673000Y-109180000D02*
X143423000Y-109180000D01*
G75*
G02*
X143173000Y-108930000I0J250000D01*
G01*
X143173000Y-108005000D01*
G75*
G02*
X143423000Y-107755000I250000J0D01*
G01*
X144673000Y-107755000D01*
G75*
G02*
X144923000Y-108005000I0J-250000D01*
G01*
X144923000Y-108930000D01*
G75*
G02*
X144673000Y-109180000I-250000J0D01*
G01*
G37*
G04 #@! TD.AperFunction*
G04 #@! TA.AperFunction,SMDPad,CuDef*
G36*
G01*
X144673000Y-112155000D02*
X143423000Y-112155000D01*
G75*
G02*
X143173000Y-111905000I0J250000D01*
G01*
X143173000Y-110980000D01*
G75*
G02*
X143423000Y-110730000I250000J0D01*
G01*
X144673000Y-110730000D01*
G75*
G02*
X144923000Y-110980000I0J-250000D01*
G01*
X144923000Y-111905000D01*
G75*
G02*
X144673000Y-112155000I-250000J0D01*
G01*
G37*
G04 #@! TD.AperFunction*
G04 #@! TA.AperFunction,SMDPad,CuDef*
G36*
G01*
X152837999Y-118622500D02*
X153738001Y-118622500D01*
G75*
G02*
X153988000Y-118872499I0J-249999D01*
G01*
X153988000Y-119522501D01*
G75*
G02*
X153738001Y-119772500I-249999J0D01*
G01*
X152837999Y-119772500D01*
G75*
G02*
X152588000Y-119522501I0J249999D01*
G01*
X152588000Y-118872499D01*
G75*
G02*
X152837999Y-118622500I249999J0D01*
G01*
G37*
G04 #@! TD.AperFunction*
G04 #@! TA.AperFunction,SMDPad,CuDef*
G36*
G01*
X152837999Y-116572500D02*
X153738001Y-116572500D01*
G75*
G02*
X153988000Y-116822499I0J-249999D01*
G01*
X153988000Y-117472501D01*
G75*
G02*
X153738001Y-117722500I-249999J0D01*
G01*
X152837999Y-117722500D01*
G75*
G02*
X152588000Y-117472501I0J249999D01*
G01*
X152588000Y-116822499D01*
G75*
G02*
X152837999Y-116572500I249999J0D01*
G01*
G37*
G04 #@! TD.AperFunction*
D10*
X147111000Y-97466900D03*
X147111000Y-99466900D03*
X147111000Y-101466900D03*
X147111000Y-103466900D03*
X147111000Y-105466900D03*
X147111000Y-107466900D03*
X147111000Y-109466900D03*
X147111000Y-111466900D03*
X165311000Y-111466900D03*
X165311000Y-109466900D03*
X165311000Y-107466900D03*
X165311000Y-105466900D03*
X165311000Y-103466900D03*
X165311000Y-101466900D03*
X165311000Y-99466900D03*
X165311000Y-97466900D03*
D11*
X158048000Y-117005000D03*
X156148000Y-117005000D03*
X157098000Y-120005000D03*
G04 #@! TA.AperFunction,SMDPad,CuDef*
G36*
G01*
X164708000Y-83390000D02*
X164708000Y-83090000D01*
G75*
G02*
X164858000Y-82940000I150000J0D01*
G01*
X166508000Y-82940000D01*
G75*
G02*
X166658000Y-83090000I0J-150000D01*
G01*
X166658000Y-83390000D01*
G75*
G02*
X166508000Y-83540000I-150000J0D01*
G01*
X164858000Y-83540000D01*
G75*
G02*
X164708000Y-83390000I0J150000D01*
G01*
G37*
G04 #@! TD.AperFunction*
G04 #@! TA.AperFunction,SMDPad,CuDef*
G36*
G01*
X164708000Y-84660000D02*
X164708000Y-84360000D01*
G75*
G02*
X164858000Y-84210000I150000J0D01*
G01*
X166508000Y-84210000D01*
G75*
G02*
X166658000Y-84360000I0J-150000D01*
G01*
X166658000Y-84660000D01*
G75*
G02*
X166508000Y-84810000I-150000J0D01*
G01*
X164858000Y-84810000D01*
G75*
G02*
X164708000Y-84660000I0J150000D01*
G01*
G37*
G04 #@! TD.AperFunction*
G04 #@! TA.AperFunction,SMDPad,CuDef*
G36*
G01*
X164708000Y-85930000D02*
X164708000Y-85630000D01*
G75*
G02*
X164858000Y-85480000I150000J0D01*
G01*
X166508000Y-85480000D01*
G75*
G02*
X166658000Y-85630000I0J-150000D01*
G01*
X166658000Y-85930000D01*
G75*
G02*
X166508000Y-86080000I-150000J0D01*
G01*
X164858000Y-86080000D01*
G75*
G02*
X164708000Y-85930000I0J150000D01*
G01*
G37*
G04 #@! TD.AperFunction*
G04 #@! TA.AperFunction,SMDPad,CuDef*
G36*
G01*
X164708000Y-87200000D02*
X164708000Y-86900000D01*
G75*
G02*
X164858000Y-86750000I150000J0D01*
G01*
X166508000Y-86750000D01*
G75*
G02*
X166658000Y-86900000I0J-150000D01*
G01*
X166658000Y-87200000D01*
G75*
G02*
X166508000Y-87350000I-150000J0D01*
G01*
X164858000Y-87350000D01*
G75*
G02*
X164708000Y-87200000I0J150000D01*
G01*
G37*
G04 #@! TD.AperFunction*
G04 #@! TA.AperFunction,SMDPad,CuDef*
G36*
G01*
X164708000Y-88470000D02*
X164708000Y-88170000D01*
G75*
G02*
X164858000Y-88020000I150000J0D01*
G01*
X166508000Y-88020000D01*
G75*
G02*
X166658000Y-88170000I0J-150000D01*
G01*
X166658000Y-88470000D01*
G75*
G02*
X166508000Y-88620000I-150000J0D01*
G01*
X164858000Y-88620000D01*
G75*
G02*
X164708000Y-88470000I0J150000D01*
G01*
G37*
G04 #@! TD.AperFunction*
G04 #@! TA.AperFunction,SMDPad,CuDef*
G36*
G01*
X164708000Y-89740000D02*
X164708000Y-89440000D01*
G75*
G02*
X164858000Y-89290000I150000J0D01*
G01*
X166508000Y-89290000D01*
G75*
G02*
X166658000Y-89440000I0J-150000D01*
G01*
X166658000Y-89740000D01*
G75*
G02*
X166508000Y-89890000I-150000J0D01*
G01*
X164858000Y-89890000D01*
G75*
G02*
X164708000Y-89740000I0J150000D01*
G01*
G37*
G04 #@! TD.AperFunction*
G04 #@! TA.AperFunction,SMDPad,CuDef*
G36*
G01*
X164708000Y-91010000D02*
X164708000Y-90710000D01*
G75*
G02*
X164858000Y-90560000I150000J0D01*
G01*
X166508000Y-90560000D01*
G75*
G02*
X166658000Y-90710000I0J-150000D01*
G01*
X166658000Y-91010000D01*
G75*
G02*
X166508000Y-91160000I-150000J0D01*
G01*
X164858000Y-91160000D01*
G75*
G02*
X164708000Y-91010000I0J150000D01*
G01*
G37*
G04 #@! TD.AperFunction*
G04 #@! TA.AperFunction,SMDPad,CuDef*
G36*
G01*
X164708000Y-92280000D02*
X164708000Y-91980000D01*
G75*
G02*
X164858000Y-91830000I150000J0D01*
G01*
X166508000Y-91830000D01*
G75*
G02*
X166658000Y-91980000I0J-150000D01*
G01*
X166658000Y-92280000D01*
G75*
G02*
X166508000Y-92430000I-150000J0D01*
G01*
X164858000Y-92430000D01*
G75*
G02*
X164708000Y-92280000I0J150000D01*
G01*
G37*
G04 #@! TD.AperFunction*
G04 #@! TA.AperFunction,SMDPad,CuDef*
G36*
G01*
X159758000Y-92280000D02*
X159758000Y-91980000D01*
G75*
G02*
X159908000Y-91830000I150000J0D01*
G01*
X161558000Y-91830000D01*
G75*
G02*
X161708000Y-91980000I0J-150000D01*
G01*
X161708000Y-92280000D01*
G75*
G02*
X161558000Y-92430000I-150000J0D01*
G01*
X159908000Y-92430000D01*
G75*
G02*
X159758000Y-92280000I0J150000D01*
G01*
G37*
G04 #@! TD.AperFunction*
G04 #@! TA.AperFunction,SMDPad,CuDef*
G36*
G01*
X159758000Y-91010000D02*
X159758000Y-90710000D01*
G75*
G02*
X159908000Y-90560000I150000J0D01*
G01*
X161558000Y-90560000D01*
G75*
G02*
X161708000Y-90710000I0J-150000D01*
G01*
X161708000Y-91010000D01*
G75*
G02*
X161558000Y-91160000I-150000J0D01*
G01*
X159908000Y-91160000D01*
G75*
G02*
X159758000Y-91010000I0J150000D01*
G01*
G37*
G04 #@! TD.AperFunction*
G04 #@! TA.AperFunction,SMDPad,CuDef*
G36*
G01*
X159758000Y-89740000D02*
X159758000Y-89440000D01*
G75*
G02*
X159908000Y-89290000I150000J0D01*
G01*
X161558000Y-89290000D01*
G75*
G02*
X161708000Y-89440000I0J-150000D01*
G01*
X161708000Y-89740000D01*
G75*
G02*
X161558000Y-89890000I-150000J0D01*
G01*
X159908000Y-89890000D01*
G75*
G02*
X159758000Y-89740000I0J150000D01*
G01*
G37*
G04 #@! TD.AperFunction*
G04 #@! TA.AperFunction,SMDPad,CuDef*
G36*
G01*
X159758000Y-88470000D02*
X159758000Y-88170000D01*
G75*
G02*
X159908000Y-88020000I150000J0D01*
G01*
X161558000Y-88020000D01*
G75*
G02*
X161708000Y-88170000I0J-150000D01*
G01*
X161708000Y-88470000D01*
G75*
G02*
X161558000Y-88620000I-150000J0D01*
G01*
X159908000Y-88620000D01*
G75*
G02*
X159758000Y-88470000I0J150000D01*
G01*
G37*
G04 #@! TD.AperFunction*
G04 #@! TA.AperFunction,SMDPad,CuDef*
G36*
G01*
X159758000Y-87200000D02*
X159758000Y-86900000D01*
G75*
G02*
X159908000Y-86750000I150000J0D01*
G01*
X161558000Y-86750000D01*
G75*
G02*
X161708000Y-86900000I0J-150000D01*
G01*
X161708000Y-87200000D01*
G75*
G02*
X161558000Y-87350000I-150000J0D01*
G01*
X159908000Y-87350000D01*
G75*
G02*
X159758000Y-87200000I0J150000D01*
G01*
G37*
G04 #@! TD.AperFunction*
G04 #@! TA.AperFunction,SMDPad,CuDef*
G36*
G01*
X159758000Y-85930000D02*
X159758000Y-85630000D01*
G75*
G02*
X159908000Y-85480000I150000J0D01*
G01*
X161558000Y-85480000D01*
G75*
G02*
X161708000Y-85630000I0J-150000D01*
G01*
X161708000Y-85930000D01*
G75*
G02*
X161558000Y-86080000I-150000J0D01*
G01*
X159908000Y-86080000D01*
G75*
G02*
X159758000Y-85930000I0J150000D01*
G01*
G37*
G04 #@! TD.AperFunction*
G04 #@! TA.AperFunction,SMDPad,CuDef*
G36*
G01*
X159758000Y-84660000D02*
X159758000Y-84360000D01*
G75*
G02*
X159908000Y-84210000I150000J0D01*
G01*
X161558000Y-84210000D01*
G75*
G02*
X161708000Y-84360000I0J-150000D01*
G01*
X161708000Y-84660000D01*
G75*
G02*
X161558000Y-84810000I-150000J0D01*
G01*
X159908000Y-84810000D01*
G75*
G02*
X159758000Y-84660000I0J150000D01*
G01*
G37*
G04 #@! TD.AperFunction*
G04 #@! TA.AperFunction,SMDPad,CuDef*
G36*
G01*
X159758000Y-83390000D02*
X159758000Y-83090000D01*
G75*
G02*
X159908000Y-82940000I150000J0D01*
G01*
X161558000Y-82940000D01*
G75*
G02*
X161708000Y-83090000I0J-150000D01*
G01*
X161708000Y-83390000D01*
G75*
G02*
X161558000Y-83540000I-150000J0D01*
G01*
X159908000Y-83540000D01*
G75*
G02*
X159758000Y-83390000I0J150000D01*
G01*
G37*
G04 #@! TD.AperFunction*
D12*
X133228000Y-113315000D03*
X133228000Y-117915000D03*
X133228000Y-115615000D03*
D13*
X139528000Y-115615000D03*
G04 #@! TA.AperFunction,SMDPad,CuDef*
G36*
G01*
X157548000Y-115051250D02*
X157548000Y-114138750D01*
G75*
G02*
X157791750Y-113895000I243750J0D01*
G01*
X158279250Y-113895000D01*
G75*
G02*
X158523000Y-114138750I0J-243750D01*
G01*
X158523000Y-115051250D01*
G75*
G02*
X158279250Y-115295000I-243750J0D01*
G01*
X157791750Y-115295000D01*
G75*
G02*
X157548000Y-115051250I0J243750D01*
G01*
G37*
G04 #@! TD.AperFunction*
G04 #@! TA.AperFunction,SMDPad,CuDef*
G36*
G01*
X155673000Y-115051250D02*
X155673000Y-114138750D01*
G75*
G02*
X155916750Y-113895000I243750J0D01*
G01*
X156404250Y-113895000D01*
G75*
G02*
X156648000Y-114138750I0J-243750D01*
G01*
X156648000Y-115051250D01*
G75*
G02*
X156404250Y-115295000I-243750J0D01*
G01*
X155916750Y-115295000D01*
G75*
G02*
X155673000Y-115051250I0J243750D01*
G01*
G37*
G04 #@! TD.AperFunction*
D14*
X172598000Y-109465000D03*
D15*
X175138000Y-106925000D03*
X170058000Y-106925000D03*
X170058000Y-112005000D03*
X175138000Y-112005000D03*
G04 #@! TA.AperFunction,SMDPad,CuDef*
G36*
G01*
X135013000Y-109880000D02*
X135013000Y-111130000D01*
G75*
G02*
X134763000Y-111380000I-250000J0D01*
G01*
X133838000Y-111380000D01*
G75*
G02*
X133588000Y-111130000I0J250000D01*
G01*
X133588000Y-109880000D01*
G75*
G02*
X133838000Y-109630000I250000J0D01*
G01*
X134763000Y-109630000D01*
G75*
G02*
X135013000Y-109880000I0J-250000D01*
G01*
G37*
G04 #@! TD.AperFunction*
G04 #@! TA.AperFunction,SMDPad,CuDef*
G36*
G01*
X137988000Y-109880000D02*
X137988000Y-111130000D01*
G75*
G02*
X137738000Y-111380000I-250000J0D01*
G01*
X136813000Y-111380000D01*
G75*
G02*
X136563000Y-111130000I0J250000D01*
G01*
X136563000Y-109880000D01*
G75*
G02*
X136813000Y-109630000I250000J0D01*
G01*
X137738000Y-109630000D01*
G75*
G02*
X137988000Y-109880000I0J-250000D01*
G01*
G37*
G04 #@! TD.AperFunction*
G04 #@! TA.AperFunction,SMDPad,CuDef*
G36*
G01*
X130583000Y-115220000D02*
X129333000Y-115220000D01*
G75*
G02*
X129083000Y-114970000I0J250000D01*
G01*
X129083000Y-114045000D01*
G75*
G02*
X129333000Y-113795000I250000J0D01*
G01*
X130583000Y-113795000D01*
G75*
G02*
X130833000Y-114045000I0J-250000D01*
G01*
X130833000Y-114970000D01*
G75*
G02*
X130583000Y-115220000I-250000J0D01*
G01*
G37*
G04 #@! TD.AperFunction*
G04 #@! TA.AperFunction,SMDPad,CuDef*
G36*
G01*
X130583000Y-118195000D02*
X129333000Y-118195000D01*
G75*
G02*
X129083000Y-117945000I0J250000D01*
G01*
X129083000Y-117020000D01*
G75*
G02*
X129333000Y-116770000I250000J0D01*
G01*
X130583000Y-116770000D01*
G75*
G02*
X130833000Y-117020000I0J-250000D01*
G01*
X130833000Y-117945000D01*
G75*
G02*
X130583000Y-118195000I-250000J0D01*
G01*
G37*
G04 #@! TD.AperFunction*
D16*
X138938000Y-123825000D03*
X141478000Y-123825000D03*
X144018000Y-123825000D03*
X146558000Y-123825000D03*
X149098000Y-123825000D03*
X151638000Y-123825000D03*
X154178000Y-123825000D03*
X156718000Y-123825000D03*
X161798000Y-123825000D03*
X164338000Y-123825000D03*
X166878000Y-123825000D03*
X169418000Y-123825000D03*
X171958000Y-123825000D03*
X174498000Y-123825000D03*
X129794000Y-75565000D03*
X132334000Y-75565000D03*
X134874000Y-75565000D03*
X137414000Y-75565000D03*
X139954000Y-75565000D03*
X142494000Y-75565000D03*
X145034000Y-75565000D03*
X147574000Y-75565000D03*
X150114000Y-75565000D03*
X152654000Y-75565000D03*
X156718000Y-75565000D03*
X159258000Y-75565000D03*
X161798000Y-75565000D03*
X164338000Y-75565000D03*
X166878000Y-75565000D03*
X169418000Y-75565000D03*
X171958000Y-75565000D03*
X174498000Y-75565000D03*
D17*
X124968000Y-123825000D03*
X177038000Y-118745000D03*
X126238000Y-75565000D03*
X177038000Y-90805000D03*
D18*
X174628000Y-95885000D03*
D19*
X177168000Y-95885000D03*
X174628000Y-98425000D03*
X177168000Y-98425000D03*
X174628000Y-100965000D03*
X177168000Y-100965000D03*
G04 #@! TA.AperFunction,SMDPad,CuDef*
D20*
G36*
X149008000Y-78325000D02*
G01*
X149558000Y-78325000D01*
X149558000Y-78325602D01*
X149582534Y-78325602D01*
X149631365Y-78330412D01*
X149679490Y-78339984D01*
X149726445Y-78354228D01*
X149771778Y-78373005D01*
X149815051Y-78396136D01*
X149855850Y-78423396D01*
X149893779Y-78454524D01*
X149928476Y-78489221D01*
X149959604Y-78527150D01*
X149986864Y-78567949D01*
X150009995Y-78611222D01*
X150028772Y-78656555D01*
X150043016Y-78703510D01*
X150052588Y-78751635D01*
X150057398Y-78800466D01*
X150057398Y-78825000D01*
X150058000Y-78825000D01*
X150058000Y-79325000D01*
X150057398Y-79325000D01*
X150057398Y-79349534D01*
X150052588Y-79398365D01*
X150043016Y-79446490D01*
X150028772Y-79493445D01*
X150009995Y-79538778D01*
X149986864Y-79582051D01*
X149959604Y-79622850D01*
X149928476Y-79660779D01*
X149893779Y-79695476D01*
X149855850Y-79726604D01*
X149815051Y-79753864D01*
X149771778Y-79776995D01*
X149726445Y-79795772D01*
X149679490Y-79810016D01*
X149631365Y-79819588D01*
X149582534Y-79824398D01*
X149558000Y-79824398D01*
X149558000Y-79825000D01*
X149008000Y-79825000D01*
X149008000Y-78325000D01*
G37*
G04 #@! TD.AperFunction*
G04 #@! TA.AperFunction,SMDPad,CuDef*
G36*
X146958000Y-79824398D02*
G01*
X146933466Y-79824398D01*
X146884635Y-79819588D01*
X146836510Y-79810016D01*
X146789555Y-79795772D01*
X146744222Y-79776995D01*
X146700949Y-79753864D01*
X146660150Y-79726604D01*
X146622221Y-79695476D01*
X146587524Y-79660779D01*
X146556396Y-79622850D01*
X146529136Y-79582051D01*
X146506005Y-79538778D01*
X146487228Y-79493445D01*
X146472984Y-79446490D01*
X146463412Y-79398365D01*
X146458602Y-79349534D01*
X146458602Y-79325000D01*
X146458000Y-79325000D01*
X146458000Y-78825000D01*
X146458602Y-78825000D01*
X146458602Y-78800466D01*
X146463412Y-78751635D01*
X146472984Y-78703510D01*
X146487228Y-78656555D01*
X146506005Y-78611222D01*
X146529136Y-78567949D01*
X146556396Y-78527150D01*
X146587524Y-78489221D01*
X146622221Y-78454524D01*
X146660150Y-78423396D01*
X146700949Y-78396136D01*
X146744222Y-78373005D01*
X146789555Y-78354228D01*
X146836510Y-78339984D01*
X146884635Y-78330412D01*
X146933466Y-78325602D01*
X146958000Y-78325602D01*
X146958000Y-78325000D01*
X147508000Y-78325000D01*
X147508000Y-79825000D01*
X146958000Y-79825000D01*
X146958000Y-79824398D01*
G37*
G04 #@! TD.AperFunction*
D21*
X148258000Y-79075000D03*
X148268000Y-83025000D03*
G04 #@! TA.AperFunction,SMDPad,CuDef*
D20*
G36*
X146968000Y-83774398D02*
G01*
X146943466Y-83774398D01*
X146894635Y-83769588D01*
X146846510Y-83760016D01*
X146799555Y-83745772D01*
X146754222Y-83726995D01*
X146710949Y-83703864D01*
X146670150Y-83676604D01*
X146632221Y-83645476D01*
X146597524Y-83610779D01*
X146566396Y-83572850D01*
X146539136Y-83532051D01*
X146516005Y-83488778D01*
X146497228Y-83443445D01*
X146482984Y-83396490D01*
X146473412Y-83348365D01*
X146468602Y-83299534D01*
X146468602Y-83275000D01*
X146468000Y-83275000D01*
X146468000Y-82775000D01*
X146468602Y-82775000D01*
X146468602Y-82750466D01*
X146473412Y-82701635D01*
X146482984Y-82653510D01*
X146497228Y-82606555D01*
X146516005Y-82561222D01*
X146539136Y-82517949D01*
X146566396Y-82477150D01*
X146597524Y-82439221D01*
X146632221Y-82404524D01*
X146670150Y-82373396D01*
X146710949Y-82346136D01*
X146754222Y-82323005D01*
X146799555Y-82304228D01*
X146846510Y-82289984D01*
X146894635Y-82280412D01*
X146943466Y-82275602D01*
X146968000Y-82275602D01*
X146968000Y-82275000D01*
X147518000Y-82275000D01*
X147518000Y-83775000D01*
X146968000Y-83775000D01*
X146968000Y-83774398D01*
G37*
G04 #@! TD.AperFunction*
G04 #@! TA.AperFunction,SMDPad,CuDef*
G36*
X149018000Y-82275000D02*
G01*
X149568000Y-82275000D01*
X149568000Y-82275602D01*
X149592534Y-82275602D01*
X149641365Y-82280412D01*
X149689490Y-82289984D01*
X149736445Y-82304228D01*
X149781778Y-82323005D01*
X149825051Y-82346136D01*
X149865850Y-82373396D01*
X149903779Y-82404524D01*
X149938476Y-82439221D01*
X149969604Y-82477150D01*
X149996864Y-82517949D01*
X150019995Y-82561222D01*
X150038772Y-82606555D01*
X150053016Y-82653510D01*
X150062588Y-82701635D01*
X150067398Y-82750466D01*
X150067398Y-82775000D01*
X150068000Y-82775000D01*
X150068000Y-83275000D01*
X150067398Y-83275000D01*
X150067398Y-83299534D01*
X150062588Y-83348365D01*
X150053016Y-83396490D01*
X150038772Y-83443445D01*
X150019995Y-83488778D01*
X149996864Y-83532051D01*
X149969604Y-83572850D01*
X149938476Y-83610779D01*
X149903779Y-83645476D01*
X149865850Y-83676604D01*
X149825051Y-83703864D01*
X149781778Y-83726995D01*
X149736445Y-83745772D01*
X149689490Y-83760016D01*
X149641365Y-83769588D01*
X149592534Y-83774398D01*
X149568000Y-83774398D01*
X149568000Y-83775000D01*
X149018000Y-83775000D01*
X149018000Y-82275000D01*
G37*
G04 #@! TD.AperFunction*
D22*
X162658000Y-80125000D03*
X162198000Y-106865000D03*
X162398000Y-110865000D03*
X144578000Y-106855000D03*
X131588000Y-109205000D03*
X129068000Y-112705000D03*
X152098000Y-119095000D03*
X169449942Y-97703058D03*
X168561058Y-99251942D03*
D23*
X149098000Y-123825000D02*
X149098000Y-123977400D01*
X156148000Y-114607500D02*
X156160500Y-114595000D01*
X156148000Y-117005000D02*
X156148000Y-114607500D01*
X156005500Y-117147500D02*
X156148000Y-117005000D01*
X153288000Y-117147500D02*
X156005500Y-117147500D01*
X149008000Y-123825000D02*
X147878000Y-122695000D01*
X152588000Y-117147500D02*
X153288000Y-117147500D01*
X149098000Y-123825000D02*
X149008000Y-123825000D01*
X147878000Y-121857500D02*
X152588000Y-117147500D01*
X147878000Y-122695000D02*
X147878000Y-121857500D01*
X152113000Y-119110000D02*
X152098000Y-119095000D01*
X161733000Y-81075000D02*
X161733000Y-81050000D01*
X161733000Y-81050000D02*
X162658000Y-80125000D01*
X161708000Y-92130000D02*
X160733000Y-92130000D01*
X162828000Y-81805000D02*
X162828000Y-91010000D01*
X161733000Y-81075000D02*
X162098000Y-81075000D01*
X162828000Y-91010000D02*
X161708000Y-92130000D01*
X162098000Y-81075000D02*
X162828000Y-81805000D01*
X165311000Y-107466900D02*
X162799900Y-107466900D01*
X162799900Y-107466900D02*
X162198000Y-106865000D01*
X165311000Y-111466900D02*
X162999900Y-111466900D01*
X162999900Y-111466900D02*
X162398000Y-110865000D01*
X144048000Y-108467500D02*
X144048000Y-107385000D01*
X144048000Y-107385000D02*
X144578000Y-106855000D01*
X132818000Y-110435000D02*
X131588000Y-109205000D01*
X129958000Y-114507500D02*
X129958000Y-113595000D01*
X129958000Y-113595000D02*
X129068000Y-112705000D01*
X132818000Y-110435000D02*
X134230500Y-110435000D01*
X153288000Y-119110000D02*
X152113000Y-119110000D01*
X154183000Y-120005000D02*
X153288000Y-119110000D01*
X157098000Y-120005000D02*
X154183000Y-120005000D01*
X134230500Y-110435000D02*
X134300500Y-110505000D01*
D24*
X158035500Y-116992500D02*
X158048000Y-117005000D01*
X158035500Y-114595000D02*
X158035500Y-116992500D01*
X160188000Y-114595000D02*
X158035500Y-114595000D01*
X169418000Y-123825000D02*
X160188000Y-114595000D01*
X159258000Y-75565000D02*
X155828000Y-78995000D01*
X155748000Y-79075000D02*
X155828000Y-78995000D01*
X149558000Y-79075000D02*
X155748000Y-79075000D01*
X167398000Y-73545000D02*
X169418000Y-75565000D01*
X145220652Y-73545000D02*
X167398000Y-73545000D01*
X143845390Y-74920262D02*
X145220652Y-73545000D01*
X143845390Y-74920262D02*
X143845390Y-82042390D01*
X144828000Y-83025000D02*
X146968000Y-83025000D01*
X143845390Y-82042390D02*
X144828000Y-83025000D01*
D23*
X159683000Y-82190000D02*
X160733000Y-83240000D01*
X159683000Y-81075000D02*
X159683000Y-82190000D01*
X158100500Y-83240000D02*
X157808000Y-82947500D01*
X160733000Y-83240000D02*
X158100500Y-83240000D01*
X144072400Y-111466900D02*
X144048000Y-111442500D01*
X147111000Y-111466900D02*
X144072400Y-111466900D01*
X138978000Y-115615000D02*
X136778000Y-113415000D01*
X135688002Y-113415000D02*
X136778000Y-113415000D01*
X133488002Y-115615000D02*
X135688002Y-113415000D01*
X151106100Y-111466900D02*
X147111000Y-111466900D01*
X153828000Y-108745000D02*
X151106100Y-111466900D01*
X153828000Y-84495000D02*
X153828000Y-108745000D01*
X159683000Y-81075000D02*
X157248000Y-81075000D01*
X157248000Y-81075000D02*
X153828000Y-84495000D01*
X139528000Y-115615000D02*
X138978000Y-115615000D01*
X133228000Y-115615000D02*
X133488002Y-115615000D01*
D25*
X172596100Y-109466900D02*
X172598000Y-109465000D01*
X165311000Y-109466900D02*
X172596100Y-109466900D01*
D24*
X160733000Y-84510000D02*
X158120500Y-84510000D01*
X157808000Y-84822500D02*
X157322473Y-85308027D01*
X157322473Y-85308027D02*
X157322473Y-92925883D01*
X163863490Y-99466900D02*
X165311000Y-99466900D01*
X158120500Y-84510000D02*
X157808000Y-84822500D01*
X157322473Y-92925883D02*
X163863490Y-99466900D01*
X159673000Y-87050000D02*
X160733000Y-87050000D01*
X157788000Y-88935000D02*
X159673000Y-87050000D01*
X161118000Y-96085000D02*
X157788000Y-92755000D01*
X166811000Y-101466900D02*
X167417989Y-100859911D01*
X165311000Y-101466900D02*
X166811000Y-101466900D01*
X167417989Y-100859911D02*
X167417989Y-96704989D01*
X157788000Y-92755000D02*
X157788000Y-88935000D01*
X166798000Y-96085000D02*
X161118000Y-96085000D01*
X167417989Y-96704989D02*
X166798000Y-96085000D01*
X163811000Y-105466900D02*
X165311000Y-105466900D01*
X159711242Y-87694990D02*
X158247982Y-89158250D01*
X161754758Y-87694990D02*
X159711242Y-87694990D01*
X162033010Y-87973242D02*
X161754758Y-87694990D01*
X162033010Y-89264990D02*
X162033010Y-87973242D01*
X158247982Y-89158250D02*
X158247982Y-92564570D01*
X166984400Y-95634989D02*
X167868000Y-96518589D01*
X161708000Y-89590000D02*
X162033010Y-89264990D01*
X161318401Y-95634989D02*
X166984400Y-95634989D01*
X167868000Y-96518589D02*
X167868000Y-101244902D01*
X167868000Y-101244902D02*
X166637902Y-102475000D01*
X163418000Y-102855000D02*
X163418000Y-105073900D01*
X163798000Y-102475000D02*
X163418000Y-102855000D01*
X158247982Y-92564570D02*
X161318401Y-95634989D01*
X166637902Y-102475000D02*
X163798000Y-102475000D01*
X160733000Y-89590000D02*
X161708000Y-89590000D01*
X163418000Y-105073900D02*
X163811000Y-105466900D01*
X159148000Y-91470000D02*
X159758000Y-90860000D01*
X169288000Y-98425000D02*
X168768020Y-97905020D01*
X168768020Y-96135020D02*
X167342999Y-94709999D01*
X159758000Y-90860000D02*
X160733000Y-90860000D01*
X168768020Y-97905020D02*
X168768020Y-96135020D01*
X174628000Y-98425000D02*
X169288000Y-98425000D01*
X159148000Y-92191768D02*
X159148000Y-91470000D01*
X161666231Y-94709999D02*
X159148000Y-92191768D01*
X167342999Y-94709999D02*
X161666231Y-94709999D01*
X176978002Y-98425000D02*
X177168000Y-98425000D01*
X168318010Y-96332189D02*
X168318010Y-98125010D01*
X159758000Y-88320000D02*
X158697990Y-89380010D01*
X160733000Y-88320000D02*
X159758000Y-88320000D01*
X158697990Y-89380010D02*
X158697991Y-92378169D01*
X158697991Y-92378169D02*
X161479831Y-95160009D01*
X161479831Y-95160009D02*
X167145830Y-95160009D01*
X167145830Y-95160009D02*
X168318010Y-96332189D01*
X168318010Y-98125010D02*
X169793001Y-99600001D01*
X169793001Y-99600001D02*
X175803001Y-99600001D01*
X175803001Y-99600001D02*
X176978002Y-98425000D01*
X166811000Y-103466900D02*
X165311000Y-103466900D01*
X168335450Y-101942450D02*
X166811000Y-103466900D01*
X168335450Y-101942450D02*
X168335450Y-99447550D01*
X168335450Y-99447550D02*
X168365450Y-99447550D01*
X168365450Y-99447550D02*
X168561058Y-99251942D01*
X172809942Y-97703058D02*
X174628000Y-95885000D01*
X169449942Y-97703058D02*
X172809942Y-97703058D01*
X147574000Y-75565000D02*
X147574000Y-75691000D01*
X146958000Y-76181000D02*
X146958000Y-79075000D01*
X147574000Y-75565000D02*
X146958000Y-76181000D01*
X161708000Y-85780000D02*
X160733000Y-85780000D01*
X162238000Y-85250000D02*
X161708000Y-85780000D01*
X161118000Y-82335000D02*
X161798000Y-82335000D01*
X160708000Y-81925000D02*
X161118000Y-82335000D01*
X160708000Y-80345000D02*
X160708000Y-81925000D01*
X148258000Y-80055000D02*
X148558000Y-80355000D01*
X161798000Y-82335000D02*
X162238000Y-82775000D01*
X148558000Y-80355000D02*
X157598000Y-80355000D01*
X157598000Y-80355000D02*
X158338000Y-79615000D01*
X148258000Y-79075000D02*
X148258000Y-80055000D01*
X158338000Y-79615000D02*
X159978000Y-79615000D01*
X162238000Y-82775000D02*
X162238000Y-85250000D01*
X159978000Y-79615000D02*
X160708000Y-80345000D01*
X149568000Y-81695000D02*
X149568000Y-83025000D01*
X149058000Y-81185000D02*
X149568000Y-81695000D01*
X146778000Y-81185000D02*
X149058000Y-81185000D01*
X145718000Y-80125000D02*
X146778000Y-81185000D01*
X145718000Y-77265000D02*
X145718000Y-80125000D01*
X166878000Y-74299000D02*
X166574010Y-73995010D01*
X166878000Y-75565000D02*
X166878000Y-74299000D01*
X147310642Y-73995010D02*
X146268000Y-75037652D01*
X146268000Y-76715000D02*
X145718000Y-77265000D01*
X166574010Y-73995010D02*
X147310642Y-73995010D01*
X146268000Y-75037652D02*
X146268000Y-76715000D01*
X148268000Y-84025000D02*
X144928000Y-87365000D01*
X148268000Y-83025000D02*
X148268000Y-84025000D01*
X145611000Y-99466900D02*
X147111000Y-99466900D01*
X144928000Y-98783900D02*
X145611000Y-99466900D01*
X144928000Y-87365000D02*
X144928000Y-98783900D01*
D26*
G36*
X178094257Y-104755769D02*
G01*
X178183955Y-104792923D01*
X178260976Y-104852024D01*
X178320077Y-104929045D01*
X178357231Y-105018743D01*
X178371000Y-105123328D01*
X178371000Y-114306672D01*
X178357231Y-114411257D01*
X178320077Y-114500955D01*
X178260976Y-114577976D01*
X178183955Y-114637077D01*
X178094257Y-114674231D01*
X177989672Y-114688000D01*
X163806328Y-114688000D01*
X163701743Y-114674231D01*
X163612045Y-114637077D01*
X163535024Y-114577976D01*
X163475923Y-114500955D01*
X163438769Y-114411257D01*
X163425000Y-114306672D01*
X163425000Y-108966900D01*
X163732418Y-108966900D01*
X163732418Y-109966900D01*
X163738732Y-110031003D01*
X163757430Y-110092643D01*
X163787794Y-110149450D01*
X163828657Y-110199243D01*
X163878450Y-110240106D01*
X163935257Y-110270470D01*
X163996897Y-110289168D01*
X164061000Y-110295482D01*
X166561000Y-110295482D01*
X166625103Y-110289168D01*
X166686743Y-110270470D01*
X166743550Y-110240106D01*
X166793343Y-110199243D01*
X166797728Y-110193900D01*
X171458999Y-110193900D01*
X171547833Y-110326850D01*
X171736150Y-110515167D01*
X171957588Y-110663127D01*
X172203636Y-110765044D01*
X172464840Y-110817000D01*
X172731160Y-110817000D01*
X172992364Y-110765044D01*
X173238412Y-110663127D01*
X173459850Y-110515167D01*
X173648167Y-110326850D01*
X173796127Y-110105412D01*
X173898044Y-109859364D01*
X173950000Y-109598160D01*
X173950000Y-109331840D01*
X173898044Y-109070636D01*
X173796127Y-108824588D01*
X173648167Y-108603150D01*
X173459850Y-108414833D01*
X173238412Y-108266873D01*
X172992364Y-108164956D01*
X172731160Y-108113000D01*
X172464840Y-108113000D01*
X172203636Y-108164956D01*
X171957588Y-108266873D01*
X171736150Y-108414833D01*
X171547833Y-108603150D01*
X171456460Y-108739900D01*
X166797728Y-108739900D01*
X166793343Y-108734557D01*
X166743550Y-108693694D01*
X166686743Y-108663330D01*
X166625103Y-108644632D01*
X166561000Y-108638318D01*
X164061000Y-108638318D01*
X163996897Y-108644632D01*
X163935257Y-108663330D01*
X163878450Y-108693694D01*
X163828657Y-108734557D01*
X163787794Y-108784350D01*
X163757430Y-108841157D01*
X163738732Y-108902797D01*
X163732418Y-108966900D01*
X163425000Y-108966900D01*
X163425000Y-106973328D01*
X163438769Y-106868743D01*
X163475923Y-106779045D01*
X163535024Y-106702024D01*
X163612045Y-106642923D01*
X163701743Y-106605769D01*
X163806328Y-106592000D01*
X167390893Y-106592000D01*
X167407470Y-106590914D01*
X167536880Y-106573877D01*
X167568904Y-106565296D01*
X167689494Y-106515346D01*
X167718206Y-106498769D01*
X167821760Y-106419309D01*
X167834250Y-106408356D01*
X169385472Y-104857134D01*
X169469155Y-104792922D01*
X169558850Y-104755769D01*
X169663435Y-104742000D01*
X177989672Y-104742000D01*
X178094257Y-104755769D01*
G37*
X178094257Y-104755769D02*
X178183955Y-104792923D01*
X178260976Y-104852024D01*
X178320077Y-104929045D01*
X178357231Y-105018743D01*
X178371000Y-105123328D01*
X178371000Y-114306672D01*
X178357231Y-114411257D01*
X178320077Y-114500955D01*
X178260976Y-114577976D01*
X178183955Y-114637077D01*
X178094257Y-114674231D01*
X177989672Y-114688000D01*
X163806328Y-114688000D01*
X163701743Y-114674231D01*
X163612045Y-114637077D01*
X163535024Y-114577976D01*
X163475923Y-114500955D01*
X163438769Y-114411257D01*
X163425000Y-114306672D01*
X163425000Y-108966900D01*
X163732418Y-108966900D01*
X163732418Y-109966900D01*
X163738732Y-110031003D01*
X163757430Y-110092643D01*
X163787794Y-110149450D01*
X163828657Y-110199243D01*
X163878450Y-110240106D01*
X163935257Y-110270470D01*
X163996897Y-110289168D01*
X164061000Y-110295482D01*
X166561000Y-110295482D01*
X166625103Y-110289168D01*
X166686743Y-110270470D01*
X166743550Y-110240106D01*
X166793343Y-110199243D01*
X166797728Y-110193900D01*
X171458999Y-110193900D01*
X171547833Y-110326850D01*
X171736150Y-110515167D01*
X171957588Y-110663127D01*
X172203636Y-110765044D01*
X172464840Y-110817000D01*
X172731160Y-110817000D01*
X172992364Y-110765044D01*
X173238412Y-110663127D01*
X173459850Y-110515167D01*
X173648167Y-110326850D01*
X173796127Y-110105412D01*
X173898044Y-109859364D01*
X173950000Y-109598160D01*
X173950000Y-109331840D01*
X173898044Y-109070636D01*
X173796127Y-108824588D01*
X173648167Y-108603150D01*
X173459850Y-108414833D01*
X173238412Y-108266873D01*
X172992364Y-108164956D01*
X172731160Y-108113000D01*
X172464840Y-108113000D01*
X172203636Y-108164956D01*
X171957588Y-108266873D01*
X171736150Y-108414833D01*
X171547833Y-108603150D01*
X171456460Y-108739900D01*
X166797728Y-108739900D01*
X166793343Y-108734557D01*
X166743550Y-108693694D01*
X166686743Y-108663330D01*
X166625103Y-108644632D01*
X166561000Y-108638318D01*
X164061000Y-108638318D01*
X163996897Y-108644632D01*
X163935257Y-108663330D01*
X163878450Y-108693694D01*
X163828657Y-108734557D01*
X163787794Y-108784350D01*
X163757430Y-108841157D01*
X163738732Y-108902797D01*
X163732418Y-108966900D01*
X163425000Y-108966900D01*
X163425000Y-106973328D01*
X163438769Y-106868743D01*
X163475923Y-106779045D01*
X163535024Y-106702024D01*
X163612045Y-106642923D01*
X163701743Y-106605769D01*
X163806328Y-106592000D01*
X167390893Y-106592000D01*
X167407470Y-106590914D01*
X167536880Y-106573877D01*
X167568904Y-106565296D01*
X167689494Y-106515346D01*
X167718206Y-106498769D01*
X167821760Y-106419309D01*
X167834250Y-106408356D01*
X169385472Y-104857134D01*
X169469155Y-104792922D01*
X169558850Y-104755769D01*
X169663435Y-104742000D01*
X177989672Y-104742000D01*
X178094257Y-104755769D01*
G36*
X143973251Y-110437467D02*
G01*
X144028570Y-110474430D01*
X144065533Y-110529749D01*
X144081000Y-110607509D01*
X144081000Y-112775000D01*
X144083440Y-112799776D01*
X144106276Y-112914581D01*
X144113503Y-112938406D01*
X144125239Y-112960363D01*
X144190271Y-113057690D01*
X144206066Y-113076935D01*
X144225310Y-113092729D01*
X144322637Y-113157761D01*
X144344594Y-113169497D01*
X144368419Y-113176724D01*
X144483224Y-113199560D01*
X144508000Y-113202000D01*
X154511227Y-113202000D01*
X154588987Y-113217467D01*
X154644306Y-113254430D01*
X154681269Y-113309749D01*
X154694248Y-113375000D01*
X154681269Y-113440251D01*
X154637220Y-113506174D01*
X147284910Y-120858484D01*
X147218987Y-120902533D01*
X147141227Y-120918000D01*
X135590509Y-120918000D01*
X135512749Y-120902533D01*
X135457430Y-120865570D01*
X135420467Y-120810251D01*
X135405000Y-120732491D01*
X135405000Y-110607509D01*
X135420467Y-110529749D01*
X135457430Y-110474430D01*
X135512749Y-110437467D01*
X135590509Y-110422000D01*
X143895491Y-110422000D01*
X143973251Y-110437467D01*
G37*
X143973251Y-110437467D02*
X144028570Y-110474430D01*
X144065533Y-110529749D01*
X144081000Y-110607509D01*
X144081000Y-112775000D01*
X144083440Y-112799776D01*
X144106276Y-112914581D01*
X144113503Y-112938406D01*
X144125239Y-112960363D01*
X144190271Y-113057690D01*
X144206066Y-113076935D01*
X144225310Y-113092729D01*
X144322637Y-113157761D01*
X144344594Y-113169497D01*
X144368419Y-113176724D01*
X144483224Y-113199560D01*
X144508000Y-113202000D01*
X154511227Y-113202000D01*
X154588987Y-113217467D01*
X154644306Y-113254430D01*
X154681269Y-113309749D01*
X154694248Y-113375000D01*
X154681269Y-113440251D01*
X154637220Y-113506174D01*
X147284910Y-120858484D01*
X147218987Y-120902533D01*
X147141227Y-120918000D01*
X135590509Y-120918000D01*
X135512749Y-120902533D01*
X135457430Y-120865570D01*
X135420467Y-120810251D01*
X135405000Y-120732491D01*
X135405000Y-110607509D01*
X135420467Y-110529749D01*
X135457430Y-110474430D01*
X135512749Y-110437467D01*
X135590509Y-110422000D01*
X143895491Y-110422000D01*
X143973251Y-110437467D01*
G36*
X134513251Y-117307467D02*
G01*
X134568570Y-117344430D01*
X134605533Y-117399749D01*
X134621000Y-117477509D01*
X134621000Y-121195000D01*
X134623440Y-121219776D01*
X134646276Y-121334581D01*
X134653503Y-121358406D01*
X134665239Y-121380363D01*
X134730271Y-121477690D01*
X134746066Y-121496935D01*
X134765310Y-121512729D01*
X134862637Y-121577761D01*
X134884594Y-121589497D01*
X134908419Y-121596724D01*
X135023224Y-121619560D01*
X135048000Y-121622000D01*
X148875491Y-121622000D01*
X148953251Y-121637467D01*
X149008570Y-121674430D01*
X149045533Y-121729749D01*
X149061000Y-121807509D01*
X149061000Y-125662491D01*
X149045533Y-125740251D01*
X149008570Y-125795570D01*
X148953251Y-125832533D01*
X148875491Y-125848000D01*
X127880509Y-125848000D01*
X127802749Y-125832533D01*
X127747430Y-125795570D01*
X127710467Y-125740251D01*
X127695000Y-125662491D01*
X127695000Y-123614120D01*
X137747400Y-123614120D01*
X137747400Y-124035881D01*
X137764628Y-124210798D01*
X137832707Y-124435227D01*
X137943264Y-124642062D01*
X138092047Y-124823354D01*
X138273339Y-124972137D01*
X138480174Y-125082693D01*
X138704603Y-125150772D01*
X138938000Y-125173760D01*
X139171398Y-125150772D01*
X139395827Y-125082693D01*
X139602662Y-124972137D01*
X139783954Y-124823354D01*
X139932737Y-124642061D01*
X140043293Y-124435226D01*
X140111372Y-124210797D01*
X140128600Y-124035880D01*
X140128600Y-123614120D01*
X140287400Y-123614120D01*
X140287400Y-124035881D01*
X140304628Y-124210798D01*
X140372707Y-124435227D01*
X140483264Y-124642062D01*
X140632047Y-124823354D01*
X140813339Y-124972137D01*
X141020174Y-125082693D01*
X141244603Y-125150772D01*
X141478000Y-125173760D01*
X141711398Y-125150772D01*
X141935827Y-125082693D01*
X142142662Y-124972137D01*
X142323954Y-124823354D01*
X142472737Y-124642061D01*
X142583293Y-124435226D01*
X142651372Y-124210797D01*
X142668600Y-124035880D01*
X142668600Y-123614120D01*
X142827400Y-123614120D01*
X142827400Y-124035881D01*
X142844628Y-124210798D01*
X142912707Y-124435227D01*
X143023264Y-124642062D01*
X143172047Y-124823354D01*
X143353339Y-124972137D01*
X143560174Y-125082693D01*
X143784603Y-125150772D01*
X144018000Y-125173760D01*
X144251398Y-125150772D01*
X144475827Y-125082693D01*
X144682662Y-124972137D01*
X144863954Y-124823354D01*
X145012737Y-124642061D01*
X145123293Y-124435226D01*
X145191372Y-124210797D01*
X145208600Y-124035880D01*
X145208600Y-123614120D01*
X145367400Y-123614120D01*
X145367400Y-124035881D01*
X145384628Y-124210798D01*
X145452707Y-124435227D01*
X145563264Y-124642062D01*
X145712047Y-124823354D01*
X145893339Y-124972137D01*
X146100174Y-125082693D01*
X146324603Y-125150772D01*
X146558000Y-125173760D01*
X146791398Y-125150772D01*
X147015827Y-125082693D01*
X147222662Y-124972137D01*
X147403954Y-124823354D01*
X147552737Y-124642061D01*
X147663293Y-124435226D01*
X147731372Y-124210797D01*
X147748600Y-124035880D01*
X147748600Y-123614119D01*
X147731372Y-123439202D01*
X147663293Y-123214773D01*
X147552737Y-123007938D01*
X147403954Y-122826646D01*
X147222661Y-122677863D01*
X147015826Y-122567307D01*
X146791397Y-122499228D01*
X146558000Y-122476240D01*
X146324602Y-122499228D01*
X146100173Y-122567307D01*
X145893338Y-122677863D01*
X145712046Y-122826646D01*
X145563263Y-123007939D01*
X145452707Y-123214774D01*
X145384628Y-123439203D01*
X145367400Y-123614120D01*
X145208600Y-123614120D01*
X145208600Y-123614119D01*
X145191372Y-123439202D01*
X145123293Y-123214773D01*
X145012737Y-123007938D01*
X144863954Y-122826646D01*
X144682661Y-122677863D01*
X144475826Y-122567307D01*
X144251397Y-122499228D01*
X144018000Y-122476240D01*
X143784602Y-122499228D01*
X143560173Y-122567307D01*
X143353338Y-122677863D01*
X143172046Y-122826646D01*
X143023263Y-123007939D01*
X142912707Y-123214774D01*
X142844628Y-123439203D01*
X142827400Y-123614120D01*
X142668600Y-123614120D01*
X142668600Y-123614119D01*
X142651372Y-123439202D01*
X142583293Y-123214773D01*
X142472737Y-123007938D01*
X142323954Y-122826646D01*
X142142661Y-122677863D01*
X141935826Y-122567307D01*
X141711397Y-122499228D01*
X141478000Y-122476240D01*
X141244602Y-122499228D01*
X141020173Y-122567307D01*
X140813338Y-122677863D01*
X140632046Y-122826646D01*
X140483263Y-123007939D01*
X140372707Y-123214774D01*
X140304628Y-123439203D01*
X140287400Y-123614120D01*
X140128600Y-123614120D01*
X140128600Y-123614119D01*
X140111372Y-123439202D01*
X140043293Y-123214773D01*
X139932737Y-123007938D01*
X139783954Y-122826646D01*
X139602661Y-122677863D01*
X139395826Y-122567307D01*
X139171397Y-122499228D01*
X138938000Y-122476240D01*
X138704602Y-122499228D01*
X138480173Y-122567307D01*
X138273338Y-122677863D01*
X138092046Y-122826646D01*
X137943263Y-123007939D01*
X137832707Y-123214774D01*
X137764628Y-123439203D01*
X137747400Y-123614120D01*
X127695000Y-123614120D01*
X127695000Y-117477509D01*
X127710467Y-117399749D01*
X127747430Y-117344430D01*
X127802749Y-117307467D01*
X127880509Y-117292000D01*
X134435491Y-117292000D01*
X134513251Y-117307467D01*
G37*
X134513251Y-117307467D02*
X134568570Y-117344430D01*
X134605533Y-117399749D01*
X134621000Y-117477509D01*
X134621000Y-121195000D01*
X134623440Y-121219776D01*
X134646276Y-121334581D01*
X134653503Y-121358406D01*
X134665239Y-121380363D01*
X134730271Y-121477690D01*
X134746066Y-121496935D01*
X134765310Y-121512729D01*
X134862637Y-121577761D01*
X134884594Y-121589497D01*
X134908419Y-121596724D01*
X135023224Y-121619560D01*
X135048000Y-121622000D01*
X148875491Y-121622000D01*
X148953251Y-121637467D01*
X149008570Y-121674430D01*
X149045533Y-121729749D01*
X149061000Y-121807509D01*
X149061000Y-125662491D01*
X149045533Y-125740251D01*
X149008570Y-125795570D01*
X148953251Y-125832533D01*
X148875491Y-125848000D01*
X127880509Y-125848000D01*
X127802749Y-125832533D01*
X127747430Y-125795570D01*
X127710467Y-125740251D01*
X127695000Y-125662491D01*
X127695000Y-123614120D01*
X137747400Y-123614120D01*
X137747400Y-124035881D01*
X137764628Y-124210798D01*
X137832707Y-124435227D01*
X137943264Y-124642062D01*
X138092047Y-124823354D01*
X138273339Y-124972137D01*
X138480174Y-125082693D01*
X138704603Y-125150772D01*
X138938000Y-125173760D01*
X139171398Y-125150772D01*
X139395827Y-125082693D01*
X139602662Y-124972137D01*
X139783954Y-124823354D01*
X139932737Y-124642061D01*
X140043293Y-124435226D01*
X140111372Y-124210797D01*
X140128600Y-124035880D01*
X140128600Y-123614120D01*
X140287400Y-123614120D01*
X140287400Y-124035881D01*
X140304628Y-124210798D01*
X140372707Y-124435227D01*
X140483264Y-124642062D01*
X140632047Y-124823354D01*
X140813339Y-124972137D01*
X141020174Y-125082693D01*
X141244603Y-125150772D01*
X141478000Y-125173760D01*
X141711398Y-125150772D01*
X141935827Y-125082693D01*
X142142662Y-124972137D01*
X142323954Y-124823354D01*
X142472737Y-124642061D01*
X142583293Y-124435226D01*
X142651372Y-124210797D01*
X142668600Y-124035880D01*
X142668600Y-123614120D01*
X142827400Y-123614120D01*
X142827400Y-124035881D01*
X142844628Y-124210798D01*
X142912707Y-124435227D01*
X143023264Y-124642062D01*
X143172047Y-124823354D01*
X143353339Y-124972137D01*
X143560174Y-125082693D01*
X143784603Y-125150772D01*
X144018000Y-125173760D01*
X144251398Y-125150772D01*
X144475827Y-125082693D01*
X144682662Y-124972137D01*
X144863954Y-124823354D01*
X145012737Y-124642061D01*
X145123293Y-124435226D01*
X145191372Y-124210797D01*
X145208600Y-124035880D01*
X145208600Y-123614120D01*
X145367400Y-123614120D01*
X145367400Y-124035881D01*
X145384628Y-124210798D01*
X145452707Y-124435227D01*
X145563264Y-124642062D01*
X145712047Y-124823354D01*
X145893339Y-124972137D01*
X146100174Y-125082693D01*
X146324603Y-125150772D01*
X146558000Y-125173760D01*
X146791398Y-125150772D01*
X147015827Y-125082693D01*
X147222662Y-124972137D01*
X147403954Y-124823354D01*
X147552737Y-124642061D01*
X147663293Y-124435226D01*
X147731372Y-124210797D01*
X147748600Y-124035880D01*
X147748600Y-123614119D01*
X147731372Y-123439202D01*
X147663293Y-123214773D01*
X147552737Y-123007938D01*
X147403954Y-122826646D01*
X147222661Y-122677863D01*
X147015826Y-122567307D01*
X146791397Y-122499228D01*
X146558000Y-122476240D01*
X146324602Y-122499228D01*
X146100173Y-122567307D01*
X145893338Y-122677863D01*
X145712046Y-122826646D01*
X145563263Y-123007939D01*
X145452707Y-123214774D01*
X145384628Y-123439203D01*
X145367400Y-123614120D01*
X145208600Y-123614120D01*
X145208600Y-123614119D01*
X145191372Y-123439202D01*
X145123293Y-123214773D01*
X145012737Y-123007938D01*
X144863954Y-122826646D01*
X144682661Y-122677863D01*
X144475826Y-122567307D01*
X144251397Y-122499228D01*
X144018000Y-122476240D01*
X143784602Y-122499228D01*
X143560173Y-122567307D01*
X143353338Y-122677863D01*
X143172046Y-122826646D01*
X143023263Y-123007939D01*
X142912707Y-123214774D01*
X142844628Y-123439203D01*
X142827400Y-123614120D01*
X142668600Y-123614120D01*
X142668600Y-123614119D01*
X142651372Y-123439202D01*
X142583293Y-123214773D01*
X142472737Y-123007938D01*
X142323954Y-122826646D01*
X142142661Y-122677863D01*
X141935826Y-122567307D01*
X141711397Y-122499228D01*
X141478000Y-122476240D01*
X141244602Y-122499228D01*
X141020173Y-122567307D01*
X140813338Y-122677863D01*
X140632046Y-122826646D01*
X140483263Y-123007939D01*
X140372707Y-123214774D01*
X140304628Y-123439203D01*
X140287400Y-123614120D01*
X140128600Y-123614120D01*
X140128600Y-123614119D01*
X140111372Y-123439202D01*
X140043293Y-123214773D01*
X139932737Y-123007938D01*
X139783954Y-122826646D01*
X139602661Y-122677863D01*
X139395826Y-122567307D01*
X139171397Y-122499228D01*
X138938000Y-122476240D01*
X138704602Y-122499228D01*
X138480173Y-122567307D01*
X138273338Y-122677863D01*
X138092046Y-122826646D01*
X137943263Y-123007939D01*
X137832707Y-123214774D01*
X137764628Y-123439203D01*
X137747400Y-123614120D01*
X127695000Y-123614120D01*
X127695000Y-117477509D01*
X127710467Y-117399749D01*
X127747430Y-117344430D01*
X127802749Y-117307467D01*
X127880509Y-117292000D01*
X134435491Y-117292000D01*
X134513251Y-117307467D01*
G36*
X142022591Y-97247517D02*
G01*
X142077958Y-97284588D01*
X142114891Y-97340050D01*
X142130209Y-97417962D01*
X142101787Y-108682948D01*
X142086172Y-108760554D01*
X142049180Y-108815727D01*
X141993910Y-108852582D01*
X141916271Y-108868000D01*
X134463574Y-108868000D01*
X134438768Y-108870446D01*
X134323831Y-108893337D01*
X134300008Y-108900570D01*
X134278004Y-108912345D01*
X134180606Y-108977525D01*
X134161372Y-108993333D01*
X134145558Y-109012640D01*
X134080565Y-109110162D01*
X134068855Y-109132133D01*
X134061645Y-109156025D01*
X134038974Y-109271006D01*
X134036575Y-109295817D01*
X134045401Y-113912146D01*
X134030046Y-113990024D01*
X133993107Y-114045451D01*
X133937751Y-114082495D01*
X133859902Y-114098000D01*
X127820509Y-114098000D01*
X127742749Y-114082533D01*
X127687430Y-114045570D01*
X127650467Y-113990251D01*
X127635000Y-113912491D01*
X127635000Y-97417509D01*
X127650467Y-97339749D01*
X127687430Y-97284430D01*
X127742749Y-97247467D01*
X127820509Y-97232000D01*
X141944712Y-97232000D01*
X142022591Y-97247517D01*
G37*
X142022591Y-97247517D02*
X142077958Y-97284588D01*
X142114891Y-97340050D01*
X142130209Y-97417962D01*
X142101787Y-108682948D01*
X142086172Y-108760554D01*
X142049180Y-108815727D01*
X141993910Y-108852582D01*
X141916271Y-108868000D01*
X134463574Y-108868000D01*
X134438768Y-108870446D01*
X134323831Y-108893337D01*
X134300008Y-108900570D01*
X134278004Y-108912345D01*
X134180606Y-108977525D01*
X134161372Y-108993333D01*
X134145558Y-109012640D01*
X134080565Y-109110162D01*
X134068855Y-109132133D01*
X134061645Y-109156025D01*
X134038974Y-109271006D01*
X134036575Y-109295817D01*
X134045401Y-113912146D01*
X134030046Y-113990024D01*
X133993107Y-114045451D01*
X133937751Y-114082495D01*
X133859902Y-114098000D01*
X127820509Y-114098000D01*
X127742749Y-114082533D01*
X127687430Y-114045570D01*
X127650467Y-113990251D01*
X127635000Y-113912491D01*
X127635000Y-97417509D01*
X127650467Y-97339749D01*
X127687430Y-97284430D01*
X127742749Y-97247467D01*
X127820509Y-97232000D01*
X141944712Y-97232000D01*
X142022591Y-97247517D01*
M02*
