G04 #@! TF.GenerationSoftware,KiCad,Pcbnew,5.1.6-c6e7f7d~87~ubuntu18.04.1*
G04 #@! TF.CreationDate,2020-08-10T00:51:21+02:00*
G04 #@! TF.ProjectId,MyGateway,4d794761-7465-4776-9179-2e6b69636164,rev?*
G04 #@! TF.SameCoordinates,Original*
G04 #@! TF.FileFunction,Soldermask,Top*
G04 #@! TF.FilePolarity,Negative*
%FSLAX46Y46*%
G04 Gerber Fmt 4.6, Leading zero omitted, Abs format (unit mm)*
G04 Created by KiCad (PCBNEW 5.1.6-c6e7f7d~87~ubuntu18.04.1) date 2020-08-10 00:51:21*
%MOMM*%
%LPD*%
G01*
G04 APERTURE LIST*
%ADD10R,2.500000X1.000000*%
%ADD11R,0.800000X1.900000*%
%ADD12R,2.000000X1.500000*%
%ADD13R,2.000000X3.800000*%
%ADD14C,2.050000*%
%ADD15C,2.250000*%
%ADD16O,1.727200X2.032000*%
%ADD17C,4.064000*%
%ADD18R,1.700000X1.700000*%
%ADD19O,1.700000X1.700000*%
%ADD20C,0.100000*%
%ADD21R,1.000000X1.500000*%
G04 APERTURE END LIST*
G36*
G01*
X157351750Y-84335000D02*
X158264250Y-84335000D01*
G75*
G02*
X158508000Y-84578750I0J-243750D01*
G01*
X158508000Y-85066250D01*
G75*
G02*
X158264250Y-85310000I-243750J0D01*
G01*
X157351750Y-85310000D01*
G75*
G02*
X157108000Y-85066250I0J243750D01*
G01*
X157108000Y-84578750D01*
G75*
G02*
X157351750Y-84335000I243750J0D01*
G01*
G37*
G36*
G01*
X157351750Y-82460000D02*
X158264250Y-82460000D01*
G75*
G02*
X158508000Y-82703750I0J-243750D01*
G01*
X158508000Y-83191250D01*
G75*
G02*
X158264250Y-83435000I-243750J0D01*
G01*
X157351750Y-83435000D01*
G75*
G02*
X157108000Y-83191250I0J243750D01*
G01*
X157108000Y-82703750D01*
G75*
G02*
X157351750Y-82460000I243750J0D01*
G01*
G37*
G36*
G01*
X161158000Y-81525001D02*
X161158000Y-80624999D01*
G75*
G02*
X161407999Y-80375000I249999J0D01*
G01*
X162058001Y-80375000D01*
G75*
G02*
X162308000Y-80624999I0J-249999D01*
G01*
X162308000Y-81525001D01*
G75*
G02*
X162058001Y-81775000I-249999J0D01*
G01*
X161407999Y-81775000D01*
G75*
G02*
X161158000Y-81525001I0J249999D01*
G01*
G37*
G36*
G01*
X159108000Y-81525001D02*
X159108000Y-80624999D01*
G75*
G02*
X159357999Y-80375000I249999J0D01*
G01*
X160008001Y-80375000D01*
G75*
G02*
X160258000Y-80624999I0J-249999D01*
G01*
X160258000Y-81525001D01*
G75*
G02*
X160008001Y-81775000I-249999J0D01*
G01*
X159357999Y-81775000D01*
G75*
G02*
X159108000Y-81525001I0J249999D01*
G01*
G37*
G36*
G01*
X144673000Y-109180000D02*
X143423000Y-109180000D01*
G75*
G02*
X143173000Y-108930000I0J250000D01*
G01*
X143173000Y-108005000D01*
G75*
G02*
X143423000Y-107755000I250000J0D01*
G01*
X144673000Y-107755000D01*
G75*
G02*
X144923000Y-108005000I0J-250000D01*
G01*
X144923000Y-108930000D01*
G75*
G02*
X144673000Y-109180000I-250000J0D01*
G01*
G37*
G36*
G01*
X144673000Y-112155000D02*
X143423000Y-112155000D01*
G75*
G02*
X143173000Y-111905000I0J250000D01*
G01*
X143173000Y-110980000D01*
G75*
G02*
X143423000Y-110730000I250000J0D01*
G01*
X144673000Y-110730000D01*
G75*
G02*
X144923000Y-110980000I0J-250000D01*
G01*
X144923000Y-111905000D01*
G75*
G02*
X144673000Y-112155000I-250000J0D01*
G01*
G37*
G36*
G01*
X152837999Y-118622500D02*
X153738001Y-118622500D01*
G75*
G02*
X153988000Y-118872499I0J-249999D01*
G01*
X153988000Y-119522501D01*
G75*
G02*
X153738001Y-119772500I-249999J0D01*
G01*
X152837999Y-119772500D01*
G75*
G02*
X152588000Y-119522501I0J249999D01*
G01*
X152588000Y-118872499D01*
G75*
G02*
X152837999Y-118622500I249999J0D01*
G01*
G37*
G36*
G01*
X152837999Y-116572500D02*
X153738001Y-116572500D01*
G75*
G02*
X153988000Y-116822499I0J-249999D01*
G01*
X153988000Y-117472501D01*
G75*
G02*
X153738001Y-117722500I-249999J0D01*
G01*
X152837999Y-117722500D01*
G75*
G02*
X152588000Y-117472501I0J249999D01*
G01*
X152588000Y-116822499D01*
G75*
G02*
X152837999Y-116572500I249999J0D01*
G01*
G37*
D10*
X147111000Y-97466900D03*
X147111000Y-99466900D03*
X147111000Y-101466900D03*
X147111000Y-103466900D03*
X147111000Y-105466900D03*
X147111000Y-107466900D03*
X147111000Y-109466900D03*
X147111000Y-111466900D03*
X165311000Y-111466900D03*
X165311000Y-109466900D03*
X165311000Y-107466900D03*
X165311000Y-105466900D03*
X165311000Y-103466900D03*
X165311000Y-101466900D03*
X165311000Y-99466900D03*
X165311000Y-97466900D03*
D11*
X158048000Y-117005000D03*
X156148000Y-117005000D03*
X157098000Y-120005000D03*
G36*
G01*
X164708000Y-83390000D02*
X164708000Y-83090000D01*
G75*
G02*
X164858000Y-82940000I150000J0D01*
G01*
X166508000Y-82940000D01*
G75*
G02*
X166658000Y-83090000I0J-150000D01*
G01*
X166658000Y-83390000D01*
G75*
G02*
X166508000Y-83540000I-150000J0D01*
G01*
X164858000Y-83540000D01*
G75*
G02*
X164708000Y-83390000I0J150000D01*
G01*
G37*
G36*
G01*
X164708000Y-84660000D02*
X164708000Y-84360000D01*
G75*
G02*
X164858000Y-84210000I150000J0D01*
G01*
X166508000Y-84210000D01*
G75*
G02*
X166658000Y-84360000I0J-150000D01*
G01*
X166658000Y-84660000D01*
G75*
G02*
X166508000Y-84810000I-150000J0D01*
G01*
X164858000Y-84810000D01*
G75*
G02*
X164708000Y-84660000I0J150000D01*
G01*
G37*
G36*
G01*
X164708000Y-85930000D02*
X164708000Y-85630000D01*
G75*
G02*
X164858000Y-85480000I150000J0D01*
G01*
X166508000Y-85480000D01*
G75*
G02*
X166658000Y-85630000I0J-150000D01*
G01*
X166658000Y-85930000D01*
G75*
G02*
X166508000Y-86080000I-150000J0D01*
G01*
X164858000Y-86080000D01*
G75*
G02*
X164708000Y-85930000I0J150000D01*
G01*
G37*
G36*
G01*
X164708000Y-87200000D02*
X164708000Y-86900000D01*
G75*
G02*
X164858000Y-86750000I150000J0D01*
G01*
X166508000Y-86750000D01*
G75*
G02*
X166658000Y-86900000I0J-150000D01*
G01*
X166658000Y-87200000D01*
G75*
G02*
X166508000Y-87350000I-150000J0D01*
G01*
X164858000Y-87350000D01*
G75*
G02*
X164708000Y-87200000I0J150000D01*
G01*
G37*
G36*
G01*
X164708000Y-88470000D02*
X164708000Y-88170000D01*
G75*
G02*
X164858000Y-88020000I150000J0D01*
G01*
X166508000Y-88020000D01*
G75*
G02*
X166658000Y-88170000I0J-150000D01*
G01*
X166658000Y-88470000D01*
G75*
G02*
X166508000Y-88620000I-150000J0D01*
G01*
X164858000Y-88620000D01*
G75*
G02*
X164708000Y-88470000I0J150000D01*
G01*
G37*
G36*
G01*
X164708000Y-89740000D02*
X164708000Y-89440000D01*
G75*
G02*
X164858000Y-89290000I150000J0D01*
G01*
X166508000Y-89290000D01*
G75*
G02*
X166658000Y-89440000I0J-150000D01*
G01*
X166658000Y-89740000D01*
G75*
G02*
X166508000Y-89890000I-150000J0D01*
G01*
X164858000Y-89890000D01*
G75*
G02*
X164708000Y-89740000I0J150000D01*
G01*
G37*
G36*
G01*
X164708000Y-91010000D02*
X164708000Y-90710000D01*
G75*
G02*
X164858000Y-90560000I150000J0D01*
G01*
X166508000Y-90560000D01*
G75*
G02*
X166658000Y-90710000I0J-150000D01*
G01*
X166658000Y-91010000D01*
G75*
G02*
X166508000Y-91160000I-150000J0D01*
G01*
X164858000Y-91160000D01*
G75*
G02*
X164708000Y-91010000I0J150000D01*
G01*
G37*
G36*
G01*
X164708000Y-92280000D02*
X164708000Y-91980000D01*
G75*
G02*
X164858000Y-91830000I150000J0D01*
G01*
X166508000Y-91830000D01*
G75*
G02*
X166658000Y-91980000I0J-150000D01*
G01*
X166658000Y-92280000D01*
G75*
G02*
X166508000Y-92430000I-150000J0D01*
G01*
X164858000Y-92430000D01*
G75*
G02*
X164708000Y-92280000I0J150000D01*
G01*
G37*
G36*
G01*
X159758000Y-92280000D02*
X159758000Y-91980000D01*
G75*
G02*
X159908000Y-91830000I150000J0D01*
G01*
X161558000Y-91830000D01*
G75*
G02*
X161708000Y-91980000I0J-150000D01*
G01*
X161708000Y-92280000D01*
G75*
G02*
X161558000Y-92430000I-150000J0D01*
G01*
X159908000Y-92430000D01*
G75*
G02*
X159758000Y-92280000I0J150000D01*
G01*
G37*
G36*
G01*
X159758000Y-91010000D02*
X159758000Y-90710000D01*
G75*
G02*
X159908000Y-90560000I150000J0D01*
G01*
X161558000Y-90560000D01*
G75*
G02*
X161708000Y-90710000I0J-150000D01*
G01*
X161708000Y-91010000D01*
G75*
G02*
X161558000Y-91160000I-150000J0D01*
G01*
X159908000Y-91160000D01*
G75*
G02*
X159758000Y-91010000I0J150000D01*
G01*
G37*
G36*
G01*
X159758000Y-89740000D02*
X159758000Y-89440000D01*
G75*
G02*
X159908000Y-89290000I150000J0D01*
G01*
X161558000Y-89290000D01*
G75*
G02*
X161708000Y-89440000I0J-150000D01*
G01*
X161708000Y-89740000D01*
G75*
G02*
X161558000Y-89890000I-150000J0D01*
G01*
X159908000Y-89890000D01*
G75*
G02*
X159758000Y-89740000I0J150000D01*
G01*
G37*
G36*
G01*
X159758000Y-88470000D02*
X159758000Y-88170000D01*
G75*
G02*
X159908000Y-88020000I150000J0D01*
G01*
X161558000Y-88020000D01*
G75*
G02*
X161708000Y-88170000I0J-150000D01*
G01*
X161708000Y-88470000D01*
G75*
G02*
X161558000Y-88620000I-150000J0D01*
G01*
X159908000Y-88620000D01*
G75*
G02*
X159758000Y-88470000I0J150000D01*
G01*
G37*
G36*
G01*
X159758000Y-87200000D02*
X159758000Y-86900000D01*
G75*
G02*
X159908000Y-86750000I150000J0D01*
G01*
X161558000Y-86750000D01*
G75*
G02*
X161708000Y-86900000I0J-150000D01*
G01*
X161708000Y-87200000D01*
G75*
G02*
X161558000Y-87350000I-150000J0D01*
G01*
X159908000Y-87350000D01*
G75*
G02*
X159758000Y-87200000I0J150000D01*
G01*
G37*
G36*
G01*
X159758000Y-85930000D02*
X159758000Y-85630000D01*
G75*
G02*
X159908000Y-85480000I150000J0D01*
G01*
X161558000Y-85480000D01*
G75*
G02*
X161708000Y-85630000I0J-150000D01*
G01*
X161708000Y-85930000D01*
G75*
G02*
X161558000Y-86080000I-150000J0D01*
G01*
X159908000Y-86080000D01*
G75*
G02*
X159758000Y-85930000I0J150000D01*
G01*
G37*
G36*
G01*
X159758000Y-84660000D02*
X159758000Y-84360000D01*
G75*
G02*
X159908000Y-84210000I150000J0D01*
G01*
X161558000Y-84210000D01*
G75*
G02*
X161708000Y-84360000I0J-150000D01*
G01*
X161708000Y-84660000D01*
G75*
G02*
X161558000Y-84810000I-150000J0D01*
G01*
X159908000Y-84810000D01*
G75*
G02*
X159758000Y-84660000I0J150000D01*
G01*
G37*
G36*
G01*
X159758000Y-83390000D02*
X159758000Y-83090000D01*
G75*
G02*
X159908000Y-82940000I150000J0D01*
G01*
X161558000Y-82940000D01*
G75*
G02*
X161708000Y-83090000I0J-150000D01*
G01*
X161708000Y-83390000D01*
G75*
G02*
X161558000Y-83540000I-150000J0D01*
G01*
X159908000Y-83540000D01*
G75*
G02*
X159758000Y-83390000I0J150000D01*
G01*
G37*
D12*
X133228000Y-113315000D03*
X133228000Y-117915000D03*
X133228000Y-115615000D03*
D13*
X139528000Y-115615000D03*
G36*
G01*
X157548000Y-115051250D02*
X157548000Y-114138750D01*
G75*
G02*
X157791750Y-113895000I243750J0D01*
G01*
X158279250Y-113895000D01*
G75*
G02*
X158523000Y-114138750I0J-243750D01*
G01*
X158523000Y-115051250D01*
G75*
G02*
X158279250Y-115295000I-243750J0D01*
G01*
X157791750Y-115295000D01*
G75*
G02*
X157548000Y-115051250I0J243750D01*
G01*
G37*
G36*
G01*
X155673000Y-115051250D02*
X155673000Y-114138750D01*
G75*
G02*
X155916750Y-113895000I243750J0D01*
G01*
X156404250Y-113895000D01*
G75*
G02*
X156648000Y-114138750I0J-243750D01*
G01*
X156648000Y-115051250D01*
G75*
G02*
X156404250Y-115295000I-243750J0D01*
G01*
X155916750Y-115295000D01*
G75*
G02*
X155673000Y-115051250I0J243750D01*
G01*
G37*
D14*
X172598000Y-109465000D03*
D15*
X175138000Y-106925000D03*
X170058000Y-106925000D03*
X170058000Y-112005000D03*
X175138000Y-112005000D03*
G36*
G01*
X135013000Y-109880000D02*
X135013000Y-111130000D01*
G75*
G02*
X134763000Y-111380000I-250000J0D01*
G01*
X133838000Y-111380000D01*
G75*
G02*
X133588000Y-111130000I0J250000D01*
G01*
X133588000Y-109880000D01*
G75*
G02*
X133838000Y-109630000I250000J0D01*
G01*
X134763000Y-109630000D01*
G75*
G02*
X135013000Y-109880000I0J-250000D01*
G01*
G37*
G36*
G01*
X137988000Y-109880000D02*
X137988000Y-111130000D01*
G75*
G02*
X137738000Y-111380000I-250000J0D01*
G01*
X136813000Y-111380000D01*
G75*
G02*
X136563000Y-111130000I0J250000D01*
G01*
X136563000Y-109880000D01*
G75*
G02*
X136813000Y-109630000I250000J0D01*
G01*
X137738000Y-109630000D01*
G75*
G02*
X137988000Y-109880000I0J-250000D01*
G01*
G37*
G36*
G01*
X130583000Y-115220000D02*
X129333000Y-115220000D01*
G75*
G02*
X129083000Y-114970000I0J250000D01*
G01*
X129083000Y-114045000D01*
G75*
G02*
X129333000Y-113795000I250000J0D01*
G01*
X130583000Y-113795000D01*
G75*
G02*
X130833000Y-114045000I0J-250000D01*
G01*
X130833000Y-114970000D01*
G75*
G02*
X130583000Y-115220000I-250000J0D01*
G01*
G37*
G36*
G01*
X130583000Y-118195000D02*
X129333000Y-118195000D01*
G75*
G02*
X129083000Y-117945000I0J250000D01*
G01*
X129083000Y-117020000D01*
G75*
G02*
X129333000Y-116770000I250000J0D01*
G01*
X130583000Y-116770000D01*
G75*
G02*
X130833000Y-117020000I0J-250000D01*
G01*
X130833000Y-117945000D01*
G75*
G02*
X130583000Y-118195000I-250000J0D01*
G01*
G37*
D16*
X138938000Y-123825000D03*
X141478000Y-123825000D03*
X144018000Y-123825000D03*
X146558000Y-123825000D03*
X149098000Y-123825000D03*
X151638000Y-123825000D03*
X154178000Y-123825000D03*
X156718000Y-123825000D03*
X161798000Y-123825000D03*
X164338000Y-123825000D03*
X166878000Y-123825000D03*
X169418000Y-123825000D03*
X171958000Y-123825000D03*
X174498000Y-123825000D03*
X129794000Y-75565000D03*
X132334000Y-75565000D03*
X134874000Y-75565000D03*
X137414000Y-75565000D03*
X139954000Y-75565000D03*
X142494000Y-75565000D03*
X145034000Y-75565000D03*
X147574000Y-75565000D03*
X150114000Y-75565000D03*
X152654000Y-75565000D03*
X156718000Y-75565000D03*
X159258000Y-75565000D03*
X161798000Y-75565000D03*
X164338000Y-75565000D03*
X166878000Y-75565000D03*
X169418000Y-75565000D03*
X171958000Y-75565000D03*
X174498000Y-75565000D03*
D17*
X124968000Y-123825000D03*
X177038000Y-118745000D03*
X126238000Y-75565000D03*
X177038000Y-90805000D03*
D18*
X174628000Y-95885000D03*
D19*
X177168000Y-95885000D03*
X174628000Y-98425000D03*
X177168000Y-98425000D03*
X174628000Y-100965000D03*
X177168000Y-100965000D03*
D20*
G36*
X149008000Y-78325000D02*
G01*
X149558000Y-78325000D01*
X149558000Y-78325602D01*
X149582534Y-78325602D01*
X149631365Y-78330412D01*
X149679490Y-78339984D01*
X149726445Y-78354228D01*
X149771778Y-78373005D01*
X149815051Y-78396136D01*
X149855850Y-78423396D01*
X149893779Y-78454524D01*
X149928476Y-78489221D01*
X149959604Y-78527150D01*
X149986864Y-78567949D01*
X150009995Y-78611222D01*
X150028772Y-78656555D01*
X150043016Y-78703510D01*
X150052588Y-78751635D01*
X150057398Y-78800466D01*
X150057398Y-78825000D01*
X150058000Y-78825000D01*
X150058000Y-79325000D01*
X150057398Y-79325000D01*
X150057398Y-79349534D01*
X150052588Y-79398365D01*
X150043016Y-79446490D01*
X150028772Y-79493445D01*
X150009995Y-79538778D01*
X149986864Y-79582051D01*
X149959604Y-79622850D01*
X149928476Y-79660779D01*
X149893779Y-79695476D01*
X149855850Y-79726604D01*
X149815051Y-79753864D01*
X149771778Y-79776995D01*
X149726445Y-79795772D01*
X149679490Y-79810016D01*
X149631365Y-79819588D01*
X149582534Y-79824398D01*
X149558000Y-79824398D01*
X149558000Y-79825000D01*
X149008000Y-79825000D01*
X149008000Y-78325000D01*
G37*
G36*
X146958000Y-79824398D02*
G01*
X146933466Y-79824398D01*
X146884635Y-79819588D01*
X146836510Y-79810016D01*
X146789555Y-79795772D01*
X146744222Y-79776995D01*
X146700949Y-79753864D01*
X146660150Y-79726604D01*
X146622221Y-79695476D01*
X146587524Y-79660779D01*
X146556396Y-79622850D01*
X146529136Y-79582051D01*
X146506005Y-79538778D01*
X146487228Y-79493445D01*
X146472984Y-79446490D01*
X146463412Y-79398365D01*
X146458602Y-79349534D01*
X146458602Y-79325000D01*
X146458000Y-79325000D01*
X146458000Y-78825000D01*
X146458602Y-78825000D01*
X146458602Y-78800466D01*
X146463412Y-78751635D01*
X146472984Y-78703510D01*
X146487228Y-78656555D01*
X146506005Y-78611222D01*
X146529136Y-78567949D01*
X146556396Y-78527150D01*
X146587524Y-78489221D01*
X146622221Y-78454524D01*
X146660150Y-78423396D01*
X146700949Y-78396136D01*
X146744222Y-78373005D01*
X146789555Y-78354228D01*
X146836510Y-78339984D01*
X146884635Y-78330412D01*
X146933466Y-78325602D01*
X146958000Y-78325602D01*
X146958000Y-78325000D01*
X147508000Y-78325000D01*
X147508000Y-79825000D01*
X146958000Y-79825000D01*
X146958000Y-79824398D01*
G37*
D21*
X148258000Y-79075000D03*
X148268000Y-83025000D03*
D20*
G36*
X146968000Y-83774398D02*
G01*
X146943466Y-83774398D01*
X146894635Y-83769588D01*
X146846510Y-83760016D01*
X146799555Y-83745772D01*
X146754222Y-83726995D01*
X146710949Y-83703864D01*
X146670150Y-83676604D01*
X146632221Y-83645476D01*
X146597524Y-83610779D01*
X146566396Y-83572850D01*
X146539136Y-83532051D01*
X146516005Y-83488778D01*
X146497228Y-83443445D01*
X146482984Y-83396490D01*
X146473412Y-83348365D01*
X146468602Y-83299534D01*
X146468602Y-83275000D01*
X146468000Y-83275000D01*
X146468000Y-82775000D01*
X146468602Y-82775000D01*
X146468602Y-82750466D01*
X146473412Y-82701635D01*
X146482984Y-82653510D01*
X146497228Y-82606555D01*
X146516005Y-82561222D01*
X146539136Y-82517949D01*
X146566396Y-82477150D01*
X146597524Y-82439221D01*
X146632221Y-82404524D01*
X146670150Y-82373396D01*
X146710949Y-82346136D01*
X146754222Y-82323005D01*
X146799555Y-82304228D01*
X146846510Y-82289984D01*
X146894635Y-82280412D01*
X146943466Y-82275602D01*
X146968000Y-82275602D01*
X146968000Y-82275000D01*
X147518000Y-82275000D01*
X147518000Y-83775000D01*
X146968000Y-83775000D01*
X146968000Y-83774398D01*
G37*
G36*
X149018000Y-82275000D02*
G01*
X149568000Y-82275000D01*
X149568000Y-82275602D01*
X149592534Y-82275602D01*
X149641365Y-82280412D01*
X149689490Y-82289984D01*
X149736445Y-82304228D01*
X149781778Y-82323005D01*
X149825051Y-82346136D01*
X149865850Y-82373396D01*
X149903779Y-82404524D01*
X149938476Y-82439221D01*
X149969604Y-82477150D01*
X149996864Y-82517949D01*
X150019995Y-82561222D01*
X150038772Y-82606555D01*
X150053016Y-82653510D01*
X150062588Y-82701635D01*
X150067398Y-82750466D01*
X150067398Y-82775000D01*
X150068000Y-82775000D01*
X150068000Y-83275000D01*
X150067398Y-83275000D01*
X150067398Y-83299534D01*
X150062588Y-83348365D01*
X150053016Y-83396490D01*
X150038772Y-83443445D01*
X150019995Y-83488778D01*
X149996864Y-83532051D01*
X149969604Y-83572850D01*
X149938476Y-83610779D01*
X149903779Y-83645476D01*
X149865850Y-83676604D01*
X149825051Y-83703864D01*
X149781778Y-83726995D01*
X149736445Y-83745772D01*
X149689490Y-83760016D01*
X149641365Y-83769588D01*
X149592534Y-83774398D01*
X149568000Y-83774398D01*
X149568000Y-83775000D01*
X149018000Y-83775000D01*
X149018000Y-82275000D01*
G37*
M02*
