M48
INCH,TZ
T1C0.0157
T2C0.0394
T3C0.0400
T4C0.0591
T5C0.0669
T6C0.1200
%
G90
G05
T1
X50814Y-44372
X51806Y-42994
X56920Y-42069
X59881Y-46888
X63857Y-42073
X63936Y-43648
X64039Y-31545
X66363Y-39076
X66713Y-38466
T2
X68751Y-37750
X68751Y-38750
X68751Y-39750
X69751Y-37750
X69751Y-38750
X69751Y-39750
T3
X61700Y-29750
X62700Y-29750
X63700Y-29750
X64700Y-29750
X65700Y-29750
X66700Y-29750
X67700Y-29750
X68700Y-29750
X54700Y-48750
X55700Y-48750
X56700Y-48750
X57700Y-48750
X58700Y-48750
X59700Y-48750
X60700Y-48750
X61700Y-48750
X51100Y-29750
X52100Y-29750
X53100Y-29750
X54100Y-29750
X55100Y-29750
X56100Y-29750
X57100Y-29750
X58100Y-29750
X59100Y-29750
X60100Y-29750
X63700Y-48750
X64700Y-48750
X65700Y-48750
X66700Y-48750
X67700Y-48750
X68700Y-48750
T4
X67952Y-43096
T5
X66952Y-42096
X66952Y-44096
X68952Y-42096
X68952Y-44096
T6
X49700Y-29750
X69700Y-46750
X49200Y-48750
X69700Y-35750
T0
M30
